<svg width="20" height="20" viewBox="0 0 20 20" fill="none" xmlns="http://www.w3.org/2000/svg">
<path fill-rule="evenodd" clip-rule="evenodd" d="M6.67605 4.81788C7.45777 3.99424 8.53466 3.51487 9.66982 3.48523C10.805 3.45558 11.9054 3.8781 12.7291 4.65981C13.5527 5.44153 14.0321 6.51842 14.0617 7.65358C14.0753 8.17221 13.8465 8.99131 13.4061 10.0142C12.9782 11.008 12.3949 12.0958 11.8003 13.1133C11.2071 14.1282 10.6105 15.0595 10.1616 15.7379C10.1039 15.8251 10.0487 15.908 9.99626 15.9864C9.93983 15.9109 9.88037 15.8309 9.81821 15.7469C9.3345 15.0928 8.69012 14.1939 8.04478 13.2113C7.3978 12.2263 6.7586 11.1704 6.27944 10.2003C5.78619 9.20179 5.515 8.39575 5.50146 7.87712C5.47182 6.74196 5.89433 5.64152 6.67605 4.81788ZM9.44093 17.7308C9.44102 17.7309 9.44108 17.731 10.0297 17.2662L9.44108 17.731C9.58758 17.9165 9.81296 18.0221 10.0493 18.016C10.2856 18.0098 10.5051 17.8926 10.6417 17.6997L10.0297 17.2662C10.6417 17.6997 10.6418 17.6996 10.6419 17.6995L10.6421 17.6991L10.643 17.6979L10.6459 17.6937L10.657 17.678L10.6991 17.618C10.7356 17.5657 10.7888 17.4892 10.8562 17.3912C10.9909 17.1951 11.1828 16.9128 11.4125 16.5657C11.8715 15.872 12.484 14.9161 13.0953 13.8702C13.7051 12.8268 14.3219 11.6802 14.7838 10.6075C15.2331 9.56393 15.5839 8.4846 15.5612 7.61443C15.5212 6.08158 14.8739 4.62741 13.7617 3.57183C12.6495 2.51624 11.1635 1.94571 9.63066 1.98574C8.09781 2.02576 6.64365 2.67308 5.58806 3.78527C4.53248 4.89746 3.96194 6.38343 4.00197 7.91628C4.0247 8.78645 4.43139 9.846 4.93456 10.8646C5.45182 11.9118 6.12758 13.0247 6.79102 14.0348C7.45611 15.0474 8.11763 15.9701 8.6122 16.6388C8.85973 16.9735 9.06605 17.2454 9.21087 17.4341C9.28329 17.5285 9.34037 17.6021 9.37957 17.6525L9.42467 17.7102L9.43658 17.7253L9.43977 17.7294L9.44066 17.7305L9.44093 17.7308ZM9.71823 5.33898C9.39959 5.34731 9.08572 5.4183 8.79452 5.54793C8.50333 5.67755 8.24051 5.86326 8.02109 6.09445C7.80166 6.32565 7.62992 6.59779 7.51567 6.89536C7.40142 7.19292 7.3469 7.51008 7.35522 7.82871C7.36354 8.14735 7.43454 8.46122 7.56417 8.75242C7.69379 9.04362 7.8795 9.30643 8.11069 9.52586C8.34188 9.74528 8.61403 9.91702 8.9116 10.0313C9.20916 10.1455 9.52632 10.2 9.84495 10.1917C10.1636 10.1834 10.4775 10.1124 10.7687 9.98278C11.0599 9.85315 11.3227 9.66744 11.5421 9.43625C11.7615 9.20506 11.9333 8.93291 12.0475 8.63535C12.1618 8.33778 12.2163 8.02063 12.208 7.70199C12.1996 7.38336 12.1286 7.06948 11.999 6.77828C11.8694 6.48709 11.6837 6.22427 11.4525 6.00485C11.2213 5.78542 10.9491 5.61368 10.6516 5.49943C10.354 5.38518 10.0369 5.33066 9.71823 5.33898ZM9.40453 6.91829C9.51576 6.86877 9.63567 6.84165 9.75739 6.83847C9.87911 6.83529 10.0003 6.85612 10.1139 6.89977C10.2276 6.94341 10.3316 7.00901 10.4199 7.09284C10.5082 7.17666 10.5791 7.27705 10.6287 7.38829C10.6782 7.49953 10.7053 7.61943 10.7085 7.74115C10.7116 7.86287 10.6908 7.98402 10.6472 8.09769C10.6035 8.21136 10.5379 8.31532 10.4541 8.40364C10.3703 8.49196 10.2699 8.5629 10.1587 8.61241C10.0474 8.66193 9.92751 8.68905 9.80579 8.69223C9.68407 8.69541 9.56292 8.67458 9.44925 8.63094C9.33558 8.5873 9.23162 8.52169 9.1433 8.43787C9.05499 8.35405 8.98404 8.25365 8.93453 8.14242C8.88501 8.03118 8.85789 7.91128 8.85471 7.78956C8.85153 7.66784 8.87236 7.54668 8.916 7.43301C8.95965 7.31934 9.02525 7.21538 9.10907 7.12706C9.19289 7.03875 9.29329 6.96781 9.40453 6.91829Z" fill="#676879"/>
</svg>
