<svg width="20" height="20" viewBox="0 0 20 20" fill="none" xmlns="http://www.w3.org/2000/svg">
<path fill-rule="evenodd" clip-rule="evenodd" d="M9.9502 1.95001C7.82846 1.95001 5.79363 2.79287 4.29334 4.29316C2.79305 5.79345 1.9502 7.82828 1.9502 9.95001C1.9502 12.0717 2.79305 14.1066 4.29334 15.6069C5.79363 17.1072 7.82846 17.95 9.9502 17.95C12.0719 17.95 14.1068 17.1072 15.6071 15.6069C17.1073 14.1066 17.9502 12.0717 17.9502 9.95001C17.9502 7.82828 17.1073 5.79345 15.6071 4.29316C14.1068 2.79287 12.0719 1.95001 9.9502 1.95001ZM5.354 5.35382C6.57299 4.13483 8.22629 3.45001 9.9502 3.45001C11.6741 3.45001 13.3274 4.13483 14.5464 5.35382C15.7654 6.5728 16.4502 8.22611 16.4502 9.95001C16.4502 11.6739 15.7654 13.3272 14.5464 14.5462C13.3274 15.7652 11.6741 16.45 9.9502 16.45C8.22629 16.45 6.57299 15.7652 5.354 14.5462C4.13502 13.3272 3.4502 11.6739 3.4502 9.95001C3.4502 8.22611 4.13502 6.5728 5.354 5.35382ZM11.1836 6.56668C11.1836 6.15247 10.8478 5.81668 10.4336 5.81668C10.0194 5.81668 9.68356 6.15247 9.68356 6.56668V10.4333C9.68356 10.8476 10.0194 11.1833 10.4336 11.1833H13.3336C13.7478 11.1833 14.0836 10.8476 14.0836 10.4333C14.0836 10.0191 13.7478 9.68335 13.3336 9.68335H11.1836V6.56668Z" fill="#676879"/>
</svg>
